# xmcd
#
# Track frame offsets: 
#        150
#        38355
#        59353
#        86837
#        120782
#        160113
#        198788
#        237745
#
# Disc length: 3609 seconds
#
# Revision: 5
# Processed by: cddbd v1.5.2PL0 Copyright (c) Steve Scherf et al.
# Submitted via: ExactAudioCopy v0.99pb4
#
DISCID=5a0e1708
DTITLE=David Oistrakh - David Oistrakh - The Complete EMI Recordings [
DTITLE=Disc 12]
DYEAR=2008
DGENRE=Concerto
TTITLE0=Lalo: Symphonie espagnole, op.21 (rec.1954) - 1. Allegro non t
TTITLE0=roppo
TTITLE1=Lalo: Symphonie espagnole, op.21 (rec.1954) - 2. Scherzando. A
TTITLE1=llegro molto
TTITLE2=Lalo: Symphonie espagnole, op.21 (rec.1954) - 3. Intermezzo. A
TTITLE2=llegretto non troppo
TTITLE3=Lalo: Symphonie espagnole, op.21 (rec.1954) - 4. Andante
TTITLE4=Lalo: Symphonie espagnole, op.21 (rec.1954) - 5. Rondo. Allegr
TTITLE4=o
TTITLE5=Bruch: Violin Concerto no.1 in G minor, op.26 (rec.1954) - 1. 
TTITLE5=Vorspiel. Allegro moderato
TTITLE6=Bruch: Violin Concerto no.1 in G minor, op.26 (rec.1954) - 2. 
TTITLE6=Adagio
TTITLE7=Bruch: Violin Concerto no.1 in G minor, op.26 (rec.1954) - 3. 
TTITLE7=Finale. Allegro energico
EXTD=
EXTT0=
EXTT1=
EXTT2=
EXTT3=
EXTT4=
EXTT5=
EXTT6=
EXTT7=
PLAYORDER=
